<svg width="138" height="53" viewBox="0 0 138 53" fill="none" xmlns="http://www.w3.org/2000/svg">
<path d="M103.133 10.64C103.133 9.952 103.261 9.348 103.517 8.828C103.781 8.308 104.137 7.908 104.585 7.628C105.033 7.348 105.533 7.208 106.085 7.208C106.525 7.208 106.925 7.3 107.285 7.484C107.653 7.668 107.941 7.916 108.149 8.228V5.12H110.201V14H108.149V13.04C107.957 13.36 107.681 13.616 107.321 13.808C106.969 14 106.557 14.096 106.085 14.096C105.533 14.096 105.033 13.956 104.585 13.676C104.137 13.388 103.781 12.984 103.517 12.464C103.261 11.936 103.133 11.328 103.133 10.64ZM108.149 10.652C108.149 10.14 108.005 9.736 107.717 9.44C107.437 9.144 107.093 8.996 106.685 8.996C106.277 8.996 105.929 9.144 105.641 9.44C105.361 9.728 105.221 10.128 105.221 10.64C105.221 11.152 105.361 11.56 105.641 11.864C105.929 12.16 106.277 12.308 106.685 12.308C107.093 12.308 107.437 12.16 107.717 11.864C108.005 11.568 108.149 11.164 108.149 10.652ZM111.277 10.64C111.277 9.952 111.405 9.348 111.661 8.828C111.925 8.308 112.281 7.908 112.729 7.628C113.177 7.348 113.677 7.208 114.229 7.208C114.701 7.208 115.113 7.304 115.465 7.496C115.825 7.688 116.101 7.94 116.293 8.252V7.304H118.345V14H116.293V13.052C116.093 13.364 115.813 13.616 115.453 13.808C115.101 14 114.689 14.096 114.217 14.096C113.673 14.096 113.177 13.956 112.729 13.676C112.281 13.388 111.925 12.984 111.661 12.464C111.405 11.936 111.277 11.328 111.277 10.64ZM116.293 10.652C116.293 10.14 116.149 9.736 115.861 9.44C115.581 9.144 115.237 8.996 114.829 8.996C114.421 8.996 114.073 9.144 113.785 9.44C113.505 9.728 113.365 10.128 113.365 10.64C113.365 11.152 113.505 11.56 113.785 11.864C114.073 12.16 114.421 12.308 114.829 12.308C115.237 12.308 115.581 12.16 115.861 11.864C116.149 11.568 116.293 11.164 116.293 10.652ZM123.562 12.26V14H122.518C121.774 14 121.194 13.82 120.778 13.46C120.362 13.092 120.154 12.496 120.154 11.672V9.008H119.338V7.304H120.154V5.672H122.206V7.304H123.55V9.008H122.206V11.696C122.206 11.896 122.254 12.04 122.35 12.128C122.446 12.216 122.606 12.26 122.83 12.26H123.562ZM124.297 10.64C124.297 9.952 124.425 9.348 124.681 8.828C124.945 8.308 125.301 7.908 125.749 7.628C126.197 7.348 126.697 7.208 127.249 7.208C127.721 7.208 128.133 7.304 128.485 7.496C128.845 7.688 129.121 7.94 129.313 8.252V7.304H131.365V14H129.313V13.052C129.113 13.364 128.833 13.616 128.473 13.808C128.121 14 127.709 14.096 127.237 14.096C126.693 14.096 126.197 13.956 125.749 13.676C125.301 13.388 124.945 12.984 124.681 12.464C124.425 11.936 124.297 11.328 124.297 10.64ZM129.313 10.652C129.313 10.14 129.169 9.736 128.881 9.44C128.601 9.144 128.257 8.996 127.849 8.996C127.441 8.996 127.093 9.144 126.805 9.44C126.525 9.728 126.385 10.128 126.385 10.64C126.385 11.152 126.525 11.56 126.805 11.864C127.093 12.16 127.441 12.308 127.849 12.308C128.257 12.308 128.601 12.16 128.881 11.864C129.169 11.568 129.313 11.164 129.313 10.652Z" fill="#1E1E1E"/>
<path d="M107.273 29.26V31H106.229C105.485 31 104.905 30.82 104.489 30.46C104.073 30.092 103.865 29.496 103.865 28.672V26.008H103.049V24.304H103.865V22.672H105.917V24.304H107.261V26.008H105.917V28.696C105.917 28.896 105.965 29.04 106.061 29.128C106.157 29.216 106.317 29.26 106.541 29.26H107.273ZM111.464 31.096C110.808 31.096 110.216 30.956 109.688 30.676C109.168 30.396 108.756 29.996 108.452 29.476C108.156 28.956 108.008 28.348 108.008 27.652C108.008 26.964 108.16 26.36 108.464 25.84C108.768 25.312 109.184 24.908 109.712 24.628C110.24 24.348 110.832 24.208 111.488 24.208C112.144 24.208 112.736 24.348 113.264 24.628C113.792 24.908 114.208 25.312 114.512 25.84C114.816 26.36 114.968 26.964 114.968 27.652C114.968 28.34 114.812 28.948 114.5 29.476C114.196 29.996 113.776 30.396 113.24 30.676C112.712 30.956 112.12 31.096 111.464 31.096ZM111.464 29.32C111.856 29.32 112.188 29.176 112.46 28.888C112.74 28.6 112.88 28.188 112.88 27.652C112.88 27.116 112.744 26.704 112.472 26.416C112.208 26.128 111.88 25.984 111.488 25.984C111.088 25.984 110.756 26.128 110.492 26.416C110.228 26.696 110.096 27.108 110.096 27.652C110.096 28.188 110.224 28.6 110.48 28.888C110.744 29.176 111.072 29.32 111.464 29.32Z" fill="#1E1E1E"/>
<path d="M106.553 46.08L108.005 41.304H110.189L107.813 48H105.281L102.905 41.304H105.101L106.553 46.08ZM110.645 44.64C110.645 43.952 110.773 43.348 111.029 42.828C111.293 42.308 111.649 41.908 112.097 41.628C112.545 41.348 113.045 41.208 113.597 41.208C114.069 41.208 114.481 41.304 114.833 41.496C115.193 41.688 115.469 41.94 115.661 42.252V41.304H117.713V48H115.661V47.052C115.461 47.364 115.181 47.616 114.821 47.808C114.469 48 114.057 48.096 113.585 48.096C113.041 48.096 112.545 47.956 112.097 47.676C111.649 47.388 111.293 46.984 111.029 46.464C110.773 45.936 110.645 45.328 110.645 44.64ZM115.661 44.652C115.661 44.14 115.517 43.736 115.229 43.44C114.949 43.144 114.605 42.996 114.197 42.996C113.789 42.996 113.441 43.144 113.153 43.44C112.873 43.728 112.733 44.128 112.733 44.64C112.733 45.152 112.873 45.56 113.153 45.864C113.441 46.16 113.789 46.308 114.197 46.308C114.605 46.308 114.949 46.16 115.229 45.864C115.517 45.568 115.661 45.164 115.661 44.652ZM121.249 39.12V48H119.197V39.12H121.249ZM129.348 41.304V48H127.296V47.088C127.088 47.384 126.804 47.624 126.444 47.808C126.092 47.984 125.7 48.072 125.268 48.072C124.756 48.072 124.304 47.96 123.912 47.736C123.52 47.504 123.216 47.172 123 46.74C122.784 46.308 122.676 45.8 122.676 45.216V41.304H124.716V44.94C124.716 45.388 124.832 45.736 125.064 45.984C125.296 46.232 125.608 46.356 126 46.356C126.4 46.356 126.716 46.232 126.948 45.984C127.18 45.736 127.296 45.388 127.296 44.94V41.304H129.348ZM137.134 44.544C137.134 44.736 137.122 44.936 137.098 45.144H132.454C132.486 45.56 132.618 45.88 132.85 46.104C133.09 46.32 133.382 46.428 133.726 46.428C134.238 46.428 134.594 46.212 134.794 45.78H136.978C136.866 46.22 136.662 46.616 136.366 46.968C136.078 47.32 135.714 47.596 135.274 47.796C134.834 47.996 134.342 48.096 133.798 48.096C133.142 48.096 132.558 47.956 132.046 47.676C131.534 47.396 131.134 46.996 130.846 46.476C130.558 45.956 130.414 45.348 130.414 44.652C130.414 43.956 130.554 43.348 130.834 42.828C131.122 42.308 131.522 41.908 132.034 41.628C132.546 41.348 133.134 41.208 133.798 41.208C134.446 41.208 135.022 41.344 135.526 41.616C136.03 41.888 136.422 42.276 136.702 42.78C136.99 43.284 137.134 43.872 137.134 44.544ZM135.034 44.004C135.034 43.652 134.914 43.372 134.674 43.164C134.434 42.956 134.134 42.852 133.774 42.852C133.43 42.852 133.138 42.952 132.898 43.152C132.666 43.352 132.522 43.636 132.466 44.004H135.034Z" fill="#1E1E1E"/>
<path fill-rule="evenodd" clip-rule="evenodd" d="M40.6 33.9988C41.1 34.8988 42.1 35.9988 41.8 36.5988C39.6 41.5988 31.2 48.9988 23.1 48.9988C10.4 48.9988 0 38.6988 0 25.8988C0 13.0988 1.6 18.5988 1.8 18.9988L10 33.2988C12.6 37.8988 17.5 40.9988 23.1 40.9988C28.7 40.9988 33.5 37.9988 36.1 33.4988C36.1 33.4988 37.3 30.9988 37.6 29.6988C37.6 29.4988 37.9 29.4988 38 29.6988L40.6 33.9988Z" fill="#1E1E1E"/>
<path fill-rule="evenodd" clip-rule="evenodd" d="M44.6969 16.2C44.6969 16.4 44.9969 16.4 44.9969 16.2C46.1969 14.1 52.1969 3.7 53.3969 1.6C53.4969 1.4 53.7969 1.2 54.0969 1.2H62.5969C62.7969 1.2 62.7969 1.4 62.7969 1.5L47.3969 28.2C46.2969 30.1 43.6969 30.1 42.5969 28.2L36.0969 17C33.4969 12.4 28.5969 9.3 22.9969 9.3C17.3969 9.3 10.4969 13.8 8.59688 20C8.49688 20.4 7.99688 20.4 7.79688 20C6.59688 17.9 3.69688 12.9 3.29688 12.2V12C7.39687 5.4 14.6969 1 22.9969 1C22.9969 1 38.8169 1 44.6969 16.2Z" fill="#1E1E1E"/>
<path d="M95 47.2016V1.60156" stroke="#C4C4C4" stroke-width="2" stroke-linecap="round" stroke-linejoin="round"/>
<path fill-rule="evenodd" clip-rule="evenodd" d="M86.8983 2.6H78.5983C78.1983 2.8 77.4983 4 77.3983 4C76.1983 5.6 62.5983 30.3 58.6983 36.8C58.3983 37.3 57.7983 37.4 57.3983 36.8C55.9983 34.8 53.5983 31.6 52.5983 29.8C52.1983 29.1 51.8983 30.3 50.6983 32C50.6983 32 47.5983 36.5 47.7983 36.8C48.7983 38.7 51.7983 43.9 53.4983 46.4C53.4983 46.5 55.2983 48.7 57.2983 48.7C59.0983 48.7 60.9983 47.7 62.3983 45.2C67.0983 37.6 85.1983 6.5 87.0983 3C87.2983 2.6 86.7983 2.5 86.7983 2.5L86.8983 2.6Z" fill="#1E1E1E"/>
</svg>
