<svg width="845" height="466" viewBox="0 0 845 466" fill="none" xmlns="http://www.w3.org/2000/svg">
<path fill-rule="evenodd" clip-rule="evenodd" d="M393.508 319.848C398.354 328.571 408.046 339.232 405.138 345.048C383.815 393.509 302.4 465.232 223.892 465.232C100.8 465.232 0 365.402 0 241.34C0 117.278 15.5077 170.586 17.4461 174.463L96.9231 313.063C122.123 357.648 169.615 387.694 223.892 387.694C278.169 387.694 324.692 358.617 349.892 315.002C349.892 315.002 361.523 290.771 364.431 278.171C364.431 276.232 367.338 276.232 368.308 278.171L393.508 319.848Z" fill="#F5F5F5" fill-opacity="0.6"/>
<path fill-rule="evenodd" clip-rule="evenodd" d="M433.246 147.323C433.246 149.262 436.154 149.262 436.154 147.323C447.784 126.969 505.938 26.1692 517.569 5.81539C518.538 3.87693 521.446 1.93846 524.354 1.93846H606.738C608.677 1.93846 608.677 3.87692 608.677 4.84615L459.415 263.631C448.754 282.046 423.554 282.046 412.892 263.631L349.892 155.077C324.692 110.492 277.2 80.4462 222.923 80.4462C168.646 80.4462 101.769 124.062 83.3536 184.154C82.3844 188.031 77.5382 188.031 75.5998 184.154C63.969 163.8 35.8613 115.338 31.9844 108.554V106.615C71.7228 42.6462 142.477 0 222.923 0C222.923 0 376.255 0 433.246 147.323Z" fill="#F5F5F5" fill-opacity="0.6"/>
<path fill-rule="evenodd" clip-rule="evenodd" d="M842.262 15.5083H761.816C757.939 17.4468 751.155 29.0775 750.185 29.0775C738.555 44.5852 606.739 283.985 568.939 346.985C566.032 351.831 560.216 352.801 556.339 346.985C542.77 327.601 519.508 296.585 509.816 279.139C505.939 272.354 503.032 283.985 491.401 300.462C491.401 300.462 461.355 344.078 463.293 346.985C472.985 365.401 502.062 415.801 518.539 440.031C518.539 441.001 535.985 462.324 555.37 462.324C572.816 462.324 591.232 452.631 604.801 428.401C650.355 354.739 825.785 53.3083 844.201 19.3852C846.139 15.5083 841.293 14.5391 841.293 14.5391L842.262 15.5083Z" fill="#F5F5F5" fill-opacity="0.6"/>
</svg>
