<svg width="138" height="52" viewBox="0 0 138 52" fill="none" xmlns="http://www.w3.org/2000/svg">
<path d="M103.133 9.64C103.133 8.952 103.261 8.348 103.517 7.828C103.781 7.308 104.137 6.908 104.585 6.628C105.033 6.348 105.533 6.208 106.085 6.208C106.525 6.208 106.925 6.3 107.285 6.484C107.653 6.668 107.941 6.916 108.149 7.228V4.12H110.201V13H108.149V12.04C107.957 12.36 107.681 12.616 107.321 12.808C106.969 13 106.557 13.096 106.085 13.096C105.533 13.096 105.033 12.956 104.585 12.676C104.137 12.388 103.781 11.984 103.517 11.464C103.261 10.936 103.133 10.328 103.133 9.64ZM108.149 9.652C108.149 9.14 108.005 8.736 107.717 8.44C107.437 8.144 107.093 7.996 106.685 7.996C106.277 7.996 105.929 8.144 105.641 8.44C105.361 8.728 105.221 9.128 105.221 9.64C105.221 10.152 105.361 10.56 105.641 10.864C105.929 11.16 106.277 11.308 106.685 11.308C107.093 11.308 107.437 11.16 107.717 10.864C108.005 10.568 108.149 10.164 108.149 9.652ZM111.277 9.64C111.277 8.952 111.405 8.348 111.661 7.828C111.925 7.308 112.281 6.908 112.729 6.628C113.177 6.348 113.677 6.208 114.229 6.208C114.701 6.208 115.113 6.304 115.465 6.496C115.825 6.688 116.101 6.94 116.293 7.252V6.304H118.345V13H116.293V12.052C116.093 12.364 115.813 12.616 115.453 12.808C115.101 13 114.689 13.096 114.217 13.096C113.673 13.096 113.177 12.956 112.729 12.676C112.281 12.388 111.925 11.984 111.661 11.464C111.405 10.936 111.277 10.328 111.277 9.64ZM116.293 9.652C116.293 9.14 116.149 8.736 115.861 8.44C115.581 8.144 115.237 7.996 114.829 7.996C114.421 7.996 114.073 8.144 113.785 8.44C113.505 8.728 113.365 9.128 113.365 9.64C113.365 10.152 113.505 10.56 113.785 10.864C114.073 11.16 114.421 11.308 114.829 11.308C115.237 11.308 115.581 11.16 115.861 10.864C116.149 10.568 116.293 10.164 116.293 9.652ZM123.562 11.26V13H122.518C121.774 13 121.194 12.82 120.778 12.46C120.362 12.092 120.154 11.496 120.154 10.672V8.008H119.338V6.304H120.154V4.672H122.206V6.304H123.55V8.008H122.206V10.696C122.206 10.896 122.254 11.04 122.35 11.128C122.446 11.216 122.606 11.26 122.83 11.26H123.562ZM124.297 9.64C124.297 8.952 124.425 8.348 124.681 7.828C124.945 7.308 125.301 6.908 125.749 6.628C126.197 6.348 126.697 6.208 127.249 6.208C127.721 6.208 128.133 6.304 128.485 6.496C128.845 6.688 129.121 6.94 129.313 7.252V6.304H131.365V13H129.313V12.052C129.113 12.364 128.833 12.616 128.473 12.808C128.121 13 127.709 13.096 127.237 13.096C126.693 13.096 126.197 12.956 125.749 12.676C125.301 12.388 124.945 11.984 124.681 11.464C124.425 10.936 124.297 10.328 124.297 9.64ZM129.313 9.652C129.313 9.14 129.169 8.736 128.881 8.44C128.601 8.144 128.257 7.996 127.849 7.996C127.441 7.996 127.093 8.144 126.805 8.44C126.525 8.728 126.385 9.128 126.385 9.64C126.385 10.152 126.525 10.56 126.805 10.864C127.093 11.16 127.441 11.308 127.849 11.308C128.257 11.308 128.601 11.16 128.881 10.864C129.169 10.568 129.313 10.164 129.313 9.652Z" fill="#1E1E1E"/>
<path d="M107.273 28.26V30H106.229C105.485 30 104.905 29.82 104.489 29.46C104.073 29.092 103.865 28.496 103.865 27.672V25.008H103.049V23.304H103.865V21.672H105.917V23.304H107.261V25.008H105.917V27.696C105.917 27.896 105.965 28.04 106.061 28.128C106.157 28.216 106.317 28.26 106.541 28.26H107.273ZM111.464 30.096C110.808 30.096 110.216 29.956 109.688 29.676C109.168 29.396 108.756 28.996 108.452 28.476C108.156 27.956 108.008 27.348 108.008 26.652C108.008 25.964 108.16 25.36 108.464 24.84C108.768 24.312 109.184 23.908 109.712 23.628C110.24 23.348 110.832 23.208 111.488 23.208C112.144 23.208 112.736 23.348 113.264 23.628C113.792 23.908 114.208 24.312 114.512 24.84C114.816 25.36 114.968 25.964 114.968 26.652C114.968 27.34 114.812 27.948 114.5 28.476C114.196 28.996 113.776 29.396 113.24 29.676C112.712 29.956 112.12 30.096 111.464 30.096ZM111.464 28.32C111.856 28.32 112.188 28.176 112.46 27.888C112.74 27.6 112.88 27.188 112.88 26.652C112.88 26.116 112.744 25.704 112.472 25.416C112.208 25.128 111.88 24.984 111.488 24.984C111.088 24.984 110.756 25.128 110.492 25.416C110.228 25.696 110.096 26.108 110.096 26.652C110.096 27.188 110.224 27.6 110.48 27.888C110.744 28.176 111.072 28.32 111.464 28.32Z" fill="#1E1E1E"/>
<path d="M106.553 45.08L108.005 40.304H110.189L107.813 47H105.281L102.905 40.304H105.101L106.553 45.08ZM110.645 43.64C110.645 42.952 110.773 42.348 111.029 41.828C111.293 41.308 111.649 40.908 112.097 40.628C112.545 40.348 113.045 40.208 113.597 40.208C114.069 40.208 114.481 40.304 114.833 40.496C115.193 40.688 115.469 40.94 115.661 41.252V40.304H117.713V47H115.661V46.052C115.461 46.364 115.181 46.616 114.821 46.808C114.469 47 114.057 47.096 113.585 47.096C113.041 47.096 112.545 46.956 112.097 46.676C111.649 46.388 111.293 45.984 111.029 45.464C110.773 44.936 110.645 44.328 110.645 43.64ZM115.661 43.652C115.661 43.14 115.517 42.736 115.229 42.44C114.949 42.144 114.605 41.996 114.197 41.996C113.789 41.996 113.441 42.144 113.153 42.44C112.873 42.728 112.733 43.128 112.733 43.64C112.733 44.152 112.873 44.56 113.153 44.864C113.441 45.16 113.789 45.308 114.197 45.308C114.605 45.308 114.949 45.16 115.229 44.864C115.517 44.568 115.661 44.164 115.661 43.652ZM121.249 38.12V47H119.197V38.12H121.249ZM129.348 40.304V47H127.296V46.088C127.088 46.384 126.804 46.624 126.444 46.808C126.092 46.984 125.7 47.072 125.268 47.072C124.756 47.072 124.304 46.96 123.912 46.736C123.52 46.504 123.216 46.172 123 45.74C122.784 45.308 122.676 44.8 122.676 44.216V40.304H124.716V43.94C124.716 44.388 124.832 44.736 125.064 44.984C125.296 45.232 125.608 45.356 126 45.356C126.4 45.356 126.716 45.232 126.948 44.984C127.18 44.736 127.296 44.388 127.296 43.94V40.304H129.348ZM137.134 43.544C137.134 43.736 137.122 43.936 137.098 44.144H132.454C132.486 44.56 132.618 44.88 132.85 45.104C133.09 45.32 133.382 45.428 133.726 45.428C134.238 45.428 134.594 45.212 134.794 44.78H136.978C136.866 45.22 136.662 45.616 136.366 45.968C136.078 46.32 135.714 46.596 135.274 46.796C134.834 46.996 134.342 47.096 133.798 47.096C133.142 47.096 132.558 46.956 132.046 46.676C131.534 46.396 131.134 45.996 130.846 45.476C130.558 44.956 130.414 44.348 130.414 43.652C130.414 42.956 130.554 42.348 130.834 41.828C131.122 41.308 131.522 40.908 132.034 40.628C132.546 40.348 133.134 40.208 133.798 40.208C134.446 40.208 135.022 40.344 135.526 40.616C136.03 40.888 136.422 41.276 136.702 41.78C136.99 42.284 137.134 42.872 137.134 43.544ZM135.034 43.004C135.034 42.652 134.914 42.372 134.674 42.164C134.434 41.956 134.134 41.852 133.774 41.852C133.43 41.852 133.138 41.952 132.898 42.152C132.666 42.352 132.522 42.636 132.466 43.004H135.034Z" fill="#1E1E1E"/>
<path fill-rule="evenodd" clip-rule="evenodd" d="M40.6 34.9988C41.1 35.8988 42.1 36.9988 41.8 37.5988C39.6 42.5988 31.2 49.9988 23.1 49.9988C10.4 49.9988 0 39.6988 0 26.8988C0 14.0988 1.6 19.5988 1.8 19.9988L10 34.2988C12.6 38.8988 17.5 41.9988 23.1 41.9988C28.7 41.9988 33.5 38.9988 36.1 34.4988C36.1 34.4988 37.3 31.9988 37.6 30.6988C37.6 30.4988 37.9 30.4988 38 30.6988L40.6 34.9988Z" fill="#1E1E1E"/>
<path fill-rule="evenodd" clip-rule="evenodd" d="M44.6969 17.2C44.6969 17.4 44.9969 17.4 44.9969 17.2C46.1969 15.1 52.1969 4.7 53.3969 2.6C53.4969 2.4 53.7969 2.2 54.0969 2.2H62.5969C62.7969 2.2 62.7969 2.4 62.7969 2.5L47.3969 29.2C46.2969 31.1 43.6969 31.1 42.5969 29.2L36.0969 18C33.4969 13.4 28.5969 10.3 22.9969 10.3C17.3969 10.3 10.4969 14.8 8.59688 21C8.49688 21.4 7.99688 21.4 7.79688 21C6.59688 18.9 3.69688 13.9 3.29688 13.2V13C7.39687 6.4 14.6969 2 22.9969 2C22.9969 2 38.8169 2 44.6969 17.2Z" fill="#1E1E1E"/>
<path d="M95 48.2016V2.60156" stroke="#C4C4C4" stroke-width="2" stroke-linecap="round" stroke-linejoin="round"/>
<path fill-rule="evenodd" clip-rule="evenodd" d="M86.8983 3.6H78.5983C78.1983 3.8 77.4983 5 77.3983 5C76.1983 6.6 62.5983 31.3 58.6983 37.8C58.3983 38.3 57.7983 38.4 57.3983 37.8C55.9983 35.8 53.5983 32.6 52.5983 30.8C52.1983 30.1 51.8983 31.3 50.6983 33C50.6983 33 47.5983 37.5 47.7983 37.8C48.7983 39.7 51.7983 44.9 53.4983 47.4C53.4983 47.5 55.2983 49.7 57.2983 49.7C59.0983 49.7 60.9983 48.7 62.3983 46.2C67.0983 38.6 85.1983 7.5 87.0983 4C87.2983 3.6 86.7983 3.5 86.7983 3.5L86.8983 3.6Z" fill="#1E1E1E"/>
</svg>
